<svg xmlns="http://www.w3.org/2000/svg" width="41" height="36" viewBox="0 0 41 36"><path fill="#ff4b7b" d="M21.2 0a2.4 2.4 0 0 0-1.35.42L9.17 9.39H.79a.78.78 0 0 0-.79.78v14.87c0 .44.35.79.79.79h8.36l10.67 9.73c.04.03.08.07.13.09.38.23.8.35 1.24.35a2.46 2.46 0 0 0 2.45-2.47V2.47c0-1.36-1.1-2.47-2.45-2.47zM10.24 24.26c0 .43-.36.78-.8.78a.78.78 0 0 1-.78-.78v-3.13c0-.43.35-.78.79-.78.43 0 .79.35.79.78zm0-10.17c0 .43-.36.78-.8.78a.78.78 0 0 1-.78-.78v-3.13a.79.79 0 1 1 1.58 0zM30.57 3.17a.79.79 0 0 0-1 .49c-.13.41.09.86.5.99a13.7 13.7 0 0 1 9.35 12.96 13.7 13.7 0 0 1-9.33 12.95.79.79 0 0 0-.5 1 .8.8 0 0 0 1 .49A15.27 15.27 0 0 0 41 17.61c0-6.53-4.19-12.34-10.43-14.44zm3.34 14.44c0-4.68-3.16-8.85-7.68-10.15a.78.78 0 1 0-.44 1.51 9.04 9.04 0 0 1 6.54 8.64c0 3.98-2.69 7.53-6.54 8.64a.78.78 0 1 0 .44 1.5 10.62 10.62 0 0 0 7.68-10.14z"/></svg>