<svg xmlns="http://www.w3.org/2000/svg" width="41" height="38" viewBox="0 0 41 38"><path fill="#ff4b7b" d="M33.03 37.01h-.02l-24.1-.06a7.92 7.92 0 0 1-6.86-3.87 7.5 7.5 0 0 1-.01-7.72L14.09 4.88a7.9 7.9 0 0 1 6.9-3.9 7.91 7.91 0 0 1 6.89 3.9l12.04 20.55a7.49 7.49 0 0 1-.03 7.73 7.9 7.9 0 0 1-6.86 3.85zm-26.4-9.09a2.5 2.5 0 0 0 0 2.58c.24.38.92 1.28 2.3 1.29l24.1.06c1.37 0 2.06-.9 2.29-1.28.23-.39.7-1.42 0-2.58L23.29 7.44a2.58 2.58 0 0 0-2.3-1.3c-.46 0-1.6.13-2.3 1.3zm15.68-6.37h-2.65a1.3 1.3 0 0 1-1.32-1.29v-6.58a2.47 2.47 0 0 1 2.51-2.44h.27a2.47 2.47 0 0 1 2.51 2.44v6.58c0 .72-.59 1.29-1.32 1.29zm0 7.74h-2.65A1.3 1.3 0 0 1 18.34 28v-2.58c0-.71.6-1.29 1.32-1.29h2.65c.73 0 1.32.58 1.32 1.29V28c0 .71-.59 1.29-1.32 1.29z"/></svg>